<svg width="32" height="32" viewBox="0 0 32 32" fill="none" xmlns="http://www.w3.org/2000/svg">
<path fill-rule="evenodd" clip-rule="evenodd" d="M10 9C7.21979 9 5 11.2044 5 13.8822C5 15.1128 5.07894 16.4259 6.38088 17.915C7.09726 18.7343 9.62759 21.0381 12.0554 23.1991C13.2532 24.2652 14.4034 25.2768 15.2544 26.0221C15.5399 26.272 15.7916 26.492 16 26.6739C16.2084 26.492 16.4601 26.272 16.7456 26.0221C17.5966 25.2768 18.7468 24.2652 19.9446 23.1991C22.3724 21.0381 24.9027 18.7343 25.6191 17.915C26.9211 16.4259 27 15.1128 27 13.8822C27 11.2044 24.7802 9 22 9C19.2198 9 17 11.2044 17 13.8822H15C15 11.2044 12.7802 9 10 9ZM16 10.3341C14.7719 8.33176 12.5369 7 10 7C6.15279 7 3 10.0627 3 13.8822C3 15.3001 3.10222 17.2035 4.87521 19.2314C5.6963 20.1705 8.35195 22.5802 10.7257 24.693C11.9287 25.7638 13.0832 26.7791 13.9368 27.5266C14.3636 27.9004 14.7153 28.2074 14.9604 28.421L15.2442 28.668L15.3188 28.7329L15.3379 28.7495L15.3428 28.7537L15.3441 28.7548L15.3444 28.7551C15.3445 28.7552 15.3445 28.7552 16 28L15.3445 28.7552L16 29.3242L16.6555 28.7552L16 28C16.6555 28.7552 16.6555 28.7552 16.6556 28.7551L16.6559 28.7548L16.6572 28.7537L16.6621 28.7495L16.6812 28.7329L16.7558 28.668L17.0396 28.421C17.2847 28.2074 17.6364 27.9004 18.0632 27.5266C18.9168 26.7791 20.0713 25.7638 21.2743 24.693C23.6481 22.5802 26.3037 20.1705 27.1248 19.2314C28.8978 17.2035 29 15.3001 29 13.8822C29 10.0627 25.8472 7 22 7C19.4631 7 17.2281 8.33176 16 10.3341Z" fill="#B5B5BE"/>
</svg>
