<svg width="32" height="32" viewBox="0 0 32 32" fill="none" xmlns="http://www.w3.org/2000/svg">
<path fill-rule="evenodd" clip-rule="evenodd" d="M8.33332 13.3332C8.33332 9.43791 11.2383 6.22114 15 5.73113V2.6665H17V5.73113C20.7617 6.22114 23.6667 9.43791 23.6667 13.3332V18.3637L26.1654 22.1118C26.3699 22.4187 26.389 22.8132 26.215 23.1384C26.041 23.4635 25.7021 23.6665 25.3333 23.6665H22.6667H9.33332H6.66666C6.29786 23.6665 5.959 23.4635 5.78498 23.1384C5.61096 22.8132 5.63004 22.4187 5.83461 22.1118L8.33332 18.3637V13.3332ZM10.3333 13.3332C10.3333 10.2036 12.8704 7.6665 16 7.6665C19.1296 7.6665 21.6667 10.2036 21.6667 13.3332V18.6665C21.6667 18.8639 21.7251 19.0569 21.8346 19.2212L23.4648 21.6665H22.6667H9.33332H8.53518L10.1654 19.2212C10.2749 19.0569 10.3333 18.8639 10.3333 18.6665V13.3332ZM16.6666 25.3331H18.6666V25.3333C18.6666 26.1297 18.3174 26.8445 17.7638 27.3331C17.2938 27.748 16.6763 27.9998 16 27.9998C15.3237 27.9998 14.7062 27.748 14.2361 27.3331C13.6825 26.8445 13.3333 26.1296 13.3333 25.3331H15.3333H16.6666Z" fill="#B5B5BE"/>
</svg>
