<svg width="20" height="21" viewBox="0 0 20 21" fill="none" xmlns="http://www.w3.org/2000/svg">
<path d="M12.5 10.5C12.5 11.8807 11.3807 13 10 13C8.61929 13 7.5 11.8807 7.5 10.5C7.5 9.11929 8.61929 8 10 8C11.3807 8 12.5 9.11929 12.5 10.5Z" stroke="#536EFF" stroke-width="2"/>
<path d="M8.70285 3L8.31533 5.37412C7.59634 5.60809 6.94358 5.98778 6.39227 6.47811L4.1533 5.62666L2.8562 7.8733L4.7001 9.38094C4.62355 9.74195 4.58328 10.1163 4.58328 10.5C4.58328 10.8837 4.62355 11.258 4.7001 11.619L2.8562 13.1267L4.1533 15.3733L6.39548 14.5247C6.94612 15.0137 7.59774 15.3924 8.31533 15.6259L8.70285 18H11.2971L11.6846 15.6259C12.4036 15.3919 13.0563 15.0122 13.6077 14.5219L15.8466 15.3733L17.1437 13.1267L15.2998 11.6191C15.3764 11.258 15.4166 10.8837 15.4166 10.5C15.4166 10.1163 15.3764 9.74198 15.2998 9.38097L17.1437 7.87334L15.8466 5.6267L13.6044 6.47526C13.0538 5.9863 12.4022 5.60764 11.6846 5.37412L11.2971 3H8.70285Z" stroke="#283238" stroke-width="2"/>
</svg>
