<svg width="24" height="25" viewBox="0 0 24 25" fill="none" xmlns="http://www.w3.org/2000/svg">
<path d="M8.49996 19.1667C8.49996 19.5349 8.20148 19.8333 7.83329 19.8333C7.4651 19.8333 7.16663 19.5349 7.16663 19.1667C7.16663 18.7985 7.4651 18.5 7.83329 18.5C8.20148 18.5 8.49996 18.7985 8.49996 19.1667ZM16.8333 19.1667C16.8333 19.5349 16.5348 19.8333 16.1666 19.8333C15.7984 19.8333 15.5 19.5349 15.5 19.1667C15.5 18.7985 15.7984 18.5 16.1666 18.5C16.5348 18.5 16.8333 18.7985 16.8333 19.1667Z" stroke="#536EFF" stroke-width="2"/>
<path d="M2.83337 5H4.91671L5.75004 6.66667M5.75004 6.66667H18.4944C18.5712 6.66667 18.6193 6.74961 18.5812 6.81628L15.3334 12.5H8.66671L8.25004 11.6667M5.75004 6.66667L8.25004 11.6667M17.8334 15.8333H7.78474C7.04136 15.8333 6.55786 15.051 6.89031 14.3861L8.25004 11.6667" stroke="#283238" stroke-width="2"/>
</svg>
