<svg width="24" height="25" viewBox="0 0 24 25" fill="none" xmlns="http://www.w3.org/2000/svg">
<path d="M8.66663 7.9165C8.66663 8.60686 8.10698 9.1665 7.41663 9.1665C6.72627 9.1665 6.16663 8.60686 6.16663 7.9165C6.16663 7.22615 6.72627 6.6665 7.41663 6.6665C8.10698 6.6665 8.66663 7.22615 8.66663 7.9165Z" fill="#283238"/>
<path d="M11.1667 11.25C10.2462 11.25 9.5 12.0181 9.5 12.9656C9.5 13.3519 9.52516 13.821 9.95224 14.3338C10.3793 14.8467 12.8333 17.0833 12.8333 17.0833C12.8333 17.0833 15.2874 14.8467 15.7144 14.3338C16.1415 13.821 16.1667 13.3519 16.1667 12.9656C16.1667 12.0181 15.4205 11.25 14.5 11.25C13.5795 11.25 12.8333 12.0181 12.8333 12.9656C12.8333 12.0181 12.0871 11.25 11.1667 11.25Z" fill="#536EFF"/>
<path d="M4.5 11.6691V6C4.5 5.44772 4.94772 5 5.5 5H11.1691C11.4343 5 11.6887 5.10536 11.8762 5.29289L19.2096 12.6262C19.6001 13.0168 19.6001 13.6499 19.2096 14.0404L13.5404 19.7096C13.1499 20.1001 12.5168 20.1001 12.1262 19.7096L4.79289 12.3762C4.60536 12.1887 4.5 11.9343 4.5 11.6691Z" stroke="#283238" stroke-width="2"/>
</svg>
