<svg width="24" height="25" viewBox="0 0 24 25" fill="none" xmlns="http://www.w3.org/2000/svg">
<path d="M9.31518 7.01836H9.72939L10.0223 6.72547L12 4.74771L13.9778 6.72547L14.2707 7.01836H14.6849H17.4819V9.81531V10.2295L17.7747 10.5224L19.7525 12.5002L17.7747 14.4779L17.4819 14.7708V15.185V17.982H14.6849H14.2707L13.9778 18.2749L12 20.2526L10.0223 18.2749L9.72941 17.982H9.3152H6.51823V15.185V14.7708L6.22534 14.4779L4.24759 12.5002L6.22534 10.5224L6.51823 10.2295V9.81531V7.01836H9.31518Z" stroke="black" stroke-width="2"/>
<path d="M9.70093 11.2365C9.70093 9.90741 10.8014 8.94434 12.0249 8.94434C13.2484 8.94434 14.299 9.90741 14.299 11.2365C14.299 12.2598 13.4531 12.5872 12.6753 13.4468C12.2325 13.9363 12.0249 14.7021 12.0249 15.0432M12.0249 15.8902V17.2791" stroke="#536EFF" stroke-width="2"/>
</svg>
