<svg width="24" height="25" viewBox="0 0 24 25" fill="none" xmlns="http://www.w3.org/2000/svg">
<g clip-path="url(#clip0_122_5337)">
<path d="M18.6666 7.5H20.1666C20.7189 7.5 21.1666 7.94772 21.1666 8.5V17.5V20.6253C21.1666 20.7091 21.0696 20.7557 21.0042 20.7034L18.0416 18.3333H7.16663C6.61434 18.3333 6.16663 17.8856 6.16663 17.3333V15.8333" stroke="#536EFF" stroke-width="2"/>
<path d="M16.8334 4.1665H3.83337C3.28109 4.1665 2.83337 4.61422 2.83337 5.1665V14.1665V17.2918C2.83337 17.3756 2.93037 17.4222 2.99584 17.3699L5.95837 14.9998H16.8334C17.3857 14.9998 17.8334 14.5521 17.8334 13.9998V5.1665C17.8334 4.61422 17.3857 4.1665 16.8334 4.1665Z" stroke="#283238" stroke-width="2"/>
</g>
<defs>
<clipPath id="clip0_122_5337">
<rect width="20" height="20" fill="white" transform="translate(2 2.5)"/>
</clipPath>
</defs>
</svg>
