<svg width="16" height="16" viewBox="0 0 16 16" fill="none" xmlns="http://www.w3.org/2000/svg">
<path fill-rule="evenodd" clip-rule="evenodd" d="M8.00004 2.5C5.69885 2.5 3.83337 4.36548 3.83337 6.66667C3.83337 7.07657 3.9866 7.60421 4.27603 8.21654C4.56143 8.82035 4.95915 9.46509 5.40153 10.0974C6.28602 11.3616 7.31954 12.5346 7.90342 13.1688C7.9581 13.2282 8.04199 13.2282 8.09667 13.1688C8.68054 12.5346 9.71406 11.3616 10.5986 10.0974C11.0409 9.46509 11.4387 8.82035 11.7241 8.21654C12.0135 7.60421 12.1667 7.07657 12.1667 6.66667C12.1667 4.36548 10.3012 2.5 8.00004 2.5ZM2.83337 6.66667C2.83337 3.8132 5.14657 1.5 8.00004 1.5C10.8535 1.5 13.1667 3.8132 13.1667 6.66667C13.1667 7.29375 12.9422 7.97945 12.6281 8.64388C12.3101 9.31682 11.8785 10.0123 11.4179 10.6707C10.4964 11.9878 9.42882 13.1982 8.83235 13.8461C8.38157 14.3357 7.61852 14.3357 7.16773 13.8461C6.57126 13.1982 5.50368 11.9878 4.58216 10.6707C4.12153 10.0123 3.69002 9.31682 3.37194 8.64388C3.05788 7.97945 2.83337 7.29375 2.83337 6.66667ZM8.00004 5.16667C7.17161 5.16667 6.50004 5.83824 6.50004 6.66667C6.50004 7.49509 7.17161 8.16667 8.00004 8.16667C8.82847 8.16667 9.50004 7.49509 9.50004 6.66667C9.50004 5.83824 8.82847 5.16667 8.00004 5.16667ZM5.50004 6.66667C5.50004 5.28595 6.61933 4.16667 8.00004 4.16667C9.38075 4.16667 10.5 5.28595 10.5 6.66667C10.5 8.04738 9.38075 9.16667 8.00004 9.16667C6.61933 9.16667 5.50004 8.04738 5.50004 6.66667Z" fill="#828282"/>
</svg>
